M48
;Layer_Color=9474304
;FILE_FORMAT=2:5
INCH,TZ
;TYPE=PLATED
T1F00S00C0.01575
T2F00S00C0.03543
T3F00S00C0.03600
T4F00S00C0.06299
;TYPE=NON_PLATED
T5F00S00C0.12992
%
T01
X9000Y58500
X66000Y55500
X88004Y66836
X100720Y39982
X101000Y93500
T02
X17500Y27000
X27500
Y37000
X17500
Y56836
X27500
Y66836
X17500
Y86672
X27500
Y96672
X17500
Y116508
X27500
Y126508
X17500
X134000Y116500
Y106500
Y96500
Y86500
Y65500
Y55500
Y45500
Y35500
X119012Y14563
X109012
X99012
X89012
X79012
X69012
X59012
X49012
X126335Y152307
Y162307
X136335
Y152307
T03
X57512Y115508
X67512
X77512
X87512
X82512Y125508
X72512
X62512
X92512
T04
X44500Y162516
X105524
T05
X52512Y150508
X97512
M30
