G04*
G04 #@! TF.GenerationSoftware,Altium Limited,Altium Designer,22.10.1 (41)*
G04*
G04 Layer_Color=8388736*
%FSLAX25Y25*%
%MOIN*%
G70*
G04*
G04 #@! TF.SameCoordinates,15DD06F4-4B75-4301-A5BF-BB57507B55A5*
G04*
G04*
G04 #@! TF.FilePolarity,Negative*
G04*
G01*
G75*
%ADD12C,0.13792*%
%ADD13C,0.10642*%
%ADD14C,0.06800*%
%ADD15C,0.06706*%
%ADD16R,0.06706X0.06706*%
%ADD17R,0.06706X0.06706*%
D12*
X97512Y150508D02*
D03*
X52512D02*
D03*
D13*
X105524Y162516D02*
D03*
X44500D02*
D03*
D14*
X57512Y115508D02*
D03*
X62512Y125508D02*
D03*
X67512Y115508D02*
D03*
X72512Y125508D02*
D03*
X77512Y115508D02*
D03*
X82512Y125508D02*
D03*
X87512Y115508D02*
D03*
X92512Y125508D02*
D03*
D15*
X126335Y162307D02*
D03*
X136335D02*
D03*
X126335Y152307D02*
D03*
X49012Y14563D02*
D03*
X59012D02*
D03*
X69012D02*
D03*
X89012D02*
D03*
X99012D02*
D03*
X109012D02*
D03*
X134000Y96500D02*
D03*
Y106500D02*
D03*
Y116500D02*
D03*
Y45500D02*
D03*
Y55500D02*
D03*
Y65500D02*
D03*
X27500Y116508D02*
D03*
X17500D02*
D03*
X27500Y126508D02*
D03*
Y86672D02*
D03*
X17500D02*
D03*
X27500Y96672D02*
D03*
Y27000D02*
D03*
X17500D02*
D03*
X27500Y37000D02*
D03*
Y56836D02*
D03*
X17500D02*
D03*
X27500Y66836D02*
D03*
D16*
X136335Y152307D02*
D03*
X134000Y86500D02*
D03*
Y35500D02*
D03*
X17500Y126508D02*
D03*
Y96672D02*
D03*
Y37000D02*
D03*
Y66836D02*
D03*
D17*
X79012Y14563D02*
D03*
X119012D02*
D03*
M02*
