G04*
G04 #@! TF.GenerationSoftware,Altium Limited,Altium Designer,22.10.1 (41)*
G04*
G04 Layer_Physical_Order=1*
G04 Layer_Color=255*
%FSLAX25Y25*%
%MOIN*%
G70*
G04*
G04 #@! TF.SameCoordinates,15DD06F4-4B75-4301-A5BF-BB57507B55A5*
G04*
G04*
G04 #@! TF.FilePolarity,Positive*
G04*
G01*
G75*
%ADD18C,0.01500*%
%ADD19C,0.12992*%
%ADD20C,0.09843*%
%ADD21C,0.06000*%
%ADD22C,0.05906*%
%ADD23R,0.05906X0.05906*%
%ADD24R,0.05906X0.05906*%
%ADD25C,0.03150*%
D18*
X105524Y162516D02*
X126126D01*
X44500D02*
X105524D01*
X42946D02*
X44500D01*
X126335Y162807D02*
X137335D01*
X126126Y162516D02*
X126335Y162307D01*
X137335Y152807D02*
Y162807D01*
X100844Y40106D02*
Y93344D01*
X100720Y39982D02*
X100844Y40106D01*
Y93344D02*
X101000Y93500D01*
X27500Y96672D02*
X70672D01*
X17500D02*
X27500D01*
Y126508D02*
X60426D01*
X17500D02*
X27500D01*
X17500Y116508D02*
X27500D01*
X16308D02*
X17500D01*
X118673Y4500D02*
X124500Y10327D01*
Y77000D01*
X63500Y4500D02*
X118673D01*
X59012Y8988D02*
Y14563D01*
Y8988D02*
X63500Y4500D01*
X117181Y16394D02*
Y18819D01*
X93000Y43000D02*
X117181Y18819D01*
X93000Y43000D02*
Y125020D01*
X117181Y16394D02*
X119012Y14563D01*
X87000Y37000D02*
X93000Y43000D01*
X17500Y37000D02*
X87000D01*
X93000Y29500D02*
X99012Y23488D01*
Y14563D02*
Y23488D01*
X11500Y121316D02*
Y134000D01*
Y121316D02*
X16308Y116508D01*
X27500D02*
X55426D01*
X39000Y29500D02*
X93000D01*
X17500Y86672D02*
X28828D01*
X20028Y55500D02*
X66000D01*
X55500Y2000D02*
X144000D01*
X49012Y8488D02*
X55500Y2000D01*
X49012Y8488D02*
Y14563D01*
X124500Y77000D02*
X134000Y86500D01*
X17500Y27000D02*
X27500D01*
X11500Y19500D02*
X29000D01*
X39000Y29500D01*
X126335Y152307D02*
Y162307D01*
X6500Y56000D02*
X9000Y58500D01*
Y65336D02*
X17500Y56836D01*
X9000Y65336D02*
Y103500D01*
X6500Y24500D02*
Y56000D01*
Y24500D02*
X11500Y19500D01*
X147000Y5000D02*
Y48500D01*
X144000Y2000D02*
X147000Y5000D01*
Y48500D02*
Y127000D01*
X11500Y134000D02*
X16500Y139000D01*
X135000D01*
X147000Y127000D01*
X134000Y35500D02*
X147000Y48500D01*
X18692Y56836D02*
X20028Y55500D01*
X17500Y56836D02*
X18692D01*
X61500Y44000D02*
X87512Y70012D01*
X12500Y44000D02*
X61500D01*
X87512Y70012D02*
Y115508D01*
Y68494D02*
Y70012D01*
Y68494D02*
X87688Y68318D01*
Y67152D02*
Y68318D01*
Y67152D02*
X88004Y66836D01*
X92512Y125508D02*
X93000Y125020D01*
X62512Y125508D02*
X72004Y135000D01*
X133000D01*
X142500Y125500D01*
Y95000D02*
Y125500D01*
X134000Y86500D02*
X142500Y95000D01*
X82512Y125508D02*
X88004Y131000D01*
X131500D01*
X139000Y123500D01*
Y111500D02*
Y123500D01*
X134000Y106500D02*
X139000Y111500D01*
X92512Y125508D02*
X124992D01*
X134000Y116500D01*
X10000Y41500D02*
X12500Y44000D01*
X10000Y34500D02*
Y41500D01*
Y34500D02*
X17500Y27000D01*
X64000Y108500D02*
X67220Y111720D01*
Y115216D01*
X67512Y115508D01*
X14000Y108500D02*
X64000D01*
X9000Y103500D02*
X14000Y108500D01*
X74336Y66836D02*
X82512Y75012D01*
Y125508D01*
X17500Y66836D02*
X74336D01*
X70012Y105500D02*
X72512Y108000D01*
Y125508D01*
X16500Y105500D02*
X70012D01*
X12500Y101500D02*
X16500Y105500D01*
X12500Y91672D02*
Y101500D01*
Y91672D02*
X17500Y86672D01*
X70672Y96672D02*
X77512Y103512D01*
Y115508D01*
X56426D02*
X57512D01*
X55426Y116508D02*
X56426Y115508D01*
X61426Y125508D02*
X62512D01*
X60426Y126508D02*
X61426Y125508D01*
D19*
X97512Y150508D02*
D03*
X52512D02*
D03*
D20*
X105524Y162516D02*
D03*
X44500D02*
D03*
D21*
X57512Y115508D02*
D03*
X62512Y125508D02*
D03*
X67512Y115508D02*
D03*
X72512Y125508D02*
D03*
X77512Y115508D02*
D03*
X82512Y125508D02*
D03*
X87512Y115508D02*
D03*
X92512Y125508D02*
D03*
D22*
X126335Y162307D02*
D03*
X136335D02*
D03*
X126335Y152307D02*
D03*
X49012Y14563D02*
D03*
X59012D02*
D03*
X69012D02*
D03*
X89012D02*
D03*
X99012D02*
D03*
X109012D02*
D03*
X134000Y96500D02*
D03*
Y106500D02*
D03*
Y116500D02*
D03*
Y45500D02*
D03*
Y55500D02*
D03*
Y65500D02*
D03*
X27500Y116508D02*
D03*
X17500D02*
D03*
X27500Y126508D02*
D03*
Y86672D02*
D03*
X17500D02*
D03*
X27500Y96672D02*
D03*
Y27000D02*
D03*
X17500D02*
D03*
X27500Y37000D02*
D03*
Y56836D02*
D03*
X17500D02*
D03*
X27500Y66836D02*
D03*
D23*
X136335Y152307D02*
D03*
X134000Y86500D02*
D03*
Y35500D02*
D03*
X17500Y126508D02*
D03*
Y96672D02*
D03*
Y37000D02*
D03*
Y66836D02*
D03*
D24*
X79012Y14563D02*
D03*
X119012D02*
D03*
D25*
X100720Y39982D02*
D03*
X101000Y93500D02*
D03*
X9000Y58500D02*
D03*
X66000Y55500D02*
D03*
X88004Y66836D02*
D03*
M02*
