G04*
G04 #@! TF.GenerationSoftware,Altium Limited,Altium Designer,22.10.1 (41)*
G04*
G04 Layer_Physical_Order=2*
G04 Layer_Color=16711680*
%FSLAX25Y25*%
%MOIN*%
G70*
G04*
G04 #@! TF.SameCoordinates,15DD06F4-4B75-4301-A5BF-BB57507B55A5*
G04*
G04*
G04 #@! TF.FilePolarity,Positive*
G04*
G01*
G75*
%ADD18C,0.01500*%
%ADD19C,0.12992*%
%ADD20C,0.09843*%
%ADD21C,0.06000*%
%ADD22C,0.05906*%
%ADD23R,0.05906X0.05906*%
%ADD24R,0.05906X0.05906*%
%ADD25C,0.03150*%
%ADD26R,0.03740X0.03347*%
D18*
X79012Y45500D02*
X144516D01*
X79012Y14563D02*
Y45500D01*
X100719Y39982D02*
X100720D01*
X89012Y14563D02*
Y28275D01*
X100719Y39982D01*
X69012Y14563D02*
Y28488D01*
X36626Y7874D02*
X102323D01*
X109012Y14563D01*
X17500Y27000D02*
X36626Y7874D01*
X134059Y86441D02*
X147153D01*
X134000Y86500D02*
X134059Y86441D01*
X27500Y56836D02*
X40664D01*
X69012Y28488D01*
X70000Y45500D02*
X79012D01*
X134529Y66030D02*
X146624D01*
X134000Y65500D02*
X134529Y66030D01*
X146624D02*
X147153Y66559D01*
Y58138D02*
Y61441D01*
X144516Y55500D02*
X147153Y58138D01*
X134000Y55500D02*
X144516D01*
X146957Y53059D01*
X147153D01*
X144516Y45500D02*
X147153Y42862D01*
Y39559D02*
Y42862D01*
X146957Y47941D02*
X147153D01*
X144516Y45500D02*
X146957Y47941D01*
X134000Y35500D02*
X135059Y34441D01*
X147153D01*
X147124Y116530D02*
X147153Y116559D01*
X134000Y116500D02*
X134029Y116530D01*
X147124D01*
X146957Y104059D02*
X147153D01*
X146034Y104982D02*
Y105179D01*
X144713Y106500D02*
X146034Y105179D01*
X142016Y106500D02*
X144713D01*
X134000D02*
X142016D01*
X146034Y104982D02*
X146957Y104059D01*
Y111441D02*
X147153D01*
X142016Y106500D02*
X146957Y111441D01*
X143534Y98018D02*
X146230D01*
X147153Y98941D01*
X142016Y96500D02*
X143534Y98018D01*
X142016Y96500D02*
X146957Y91559D01*
X147153D01*
X134000Y96500D02*
X142016D01*
X28828Y86672D02*
X70000Y45500D01*
X100012Y96500D02*
X101000Y95512D01*
Y93500D02*
Y95512D01*
X100012Y96500D02*
X134000D01*
X84500D02*
X100012D01*
X66000Y55500D02*
X134000D01*
X9000Y58500D02*
X15133Y64633D01*
X15297D01*
X17500Y66836D01*
Y56836D02*
X18836Y55500D01*
X88004Y66836D02*
X88371D01*
X89707Y65500D01*
X134000D01*
X77512Y103488D02*
Y115508D01*
Y103488D02*
X84500Y96500D01*
D19*
X97512Y150508D02*
D03*
X52512D02*
D03*
D20*
X105524Y162516D02*
D03*
X44500D02*
D03*
D21*
X57512Y115508D02*
D03*
X62512Y125508D02*
D03*
X67512Y115508D02*
D03*
X72512Y125508D02*
D03*
X77512Y115508D02*
D03*
X82512Y125508D02*
D03*
X87512Y115508D02*
D03*
X92512Y125508D02*
D03*
D22*
X126335Y162307D02*
D03*
X136335D02*
D03*
X126335Y152307D02*
D03*
X49012Y14563D02*
D03*
X59012D02*
D03*
X69012D02*
D03*
X89012D02*
D03*
X99012D02*
D03*
X109012D02*
D03*
X134000Y96500D02*
D03*
Y106500D02*
D03*
Y116500D02*
D03*
Y45500D02*
D03*
Y55500D02*
D03*
Y65500D02*
D03*
X27500Y116508D02*
D03*
X17500D02*
D03*
X27500Y126508D02*
D03*
Y86672D02*
D03*
X17500D02*
D03*
X27500Y96672D02*
D03*
Y27000D02*
D03*
X17500D02*
D03*
X27500Y37000D02*
D03*
Y56836D02*
D03*
X17500D02*
D03*
X27500Y66836D02*
D03*
D23*
X136335Y152307D02*
D03*
X134000Y86500D02*
D03*
Y35500D02*
D03*
X17500Y126508D02*
D03*
Y96672D02*
D03*
Y37000D02*
D03*
Y66836D02*
D03*
D24*
X79012Y14563D02*
D03*
X119012D02*
D03*
D25*
X100720Y39982D02*
D03*
X101000Y93500D02*
D03*
X9000Y58500D02*
D03*
X66000Y55500D02*
D03*
X88004Y66836D02*
D03*
D26*
X147153Y66559D02*
D03*
Y61441D02*
D03*
Y116559D02*
D03*
Y111441D02*
D03*
X147153Y34441D02*
D03*
Y39559D02*
D03*
X147153Y53059D02*
D03*
Y47941D02*
D03*
Y104059D02*
D03*
Y98941D02*
D03*
X147153Y86441D02*
D03*
Y91559D02*
D03*
M02*
