G04*
G04 #@! TF.GenerationSoftware,Altium Limited,Altium Designer,22.10.1 (41)*
G04*
G04 Layer_Color=32896*
%FSLAX25Y25*%
%MOIN*%
G70*
G04*
G04 #@! TF.SameCoordinates,15DD06F4-4B75-4301-A5BF-BB57507B55A5*
G04*
G04*
G04 #@! TF.FilePolarity,Positive*
G04*
G01*
G75*
%ADD11C,0.00787*%
%ADD28C,0.00013*%
%ADD29C,0.00591*%
G36*
X39022Y109048D02*
X39353Y108969D01*
X39353Y108969D01*
X39482Y108935D01*
X39799Y108804D01*
X39919Y108753D01*
X40028Y108686D01*
X40447Y108429D01*
X40907Y108036D01*
X41001Y107945D01*
X41002Y107943D01*
X41090Y107845D01*
X41471Y107419D01*
X41747Y107030D01*
X41747Y107029D01*
X41961Y106708D01*
X42262Y106098D01*
X42326Y105910D01*
X42325Y105910D01*
X42474Y105470D01*
X42619Y104740D01*
X42632Y104552D01*
X42630Y104552D01*
X42666Y104004D01*
X42613Y103194D01*
X42561Y102934D01*
X42587Y102917D01*
X42665Y102965D01*
X42696Y102979D01*
X42708Y102983D01*
X43159Y103170D01*
X43675Y103294D01*
X44204Y103336D01*
X44691Y103297D01*
X44821Y103269D01*
X44951Y103237D01*
X45154Y103189D01*
X45728Y102951D01*
X46258Y102626D01*
X46730Y102223D01*
X46815Y102124D01*
X46815D01*
X46907Y102027D01*
X47268Y101623D01*
X47424Y101403D01*
X47424D01*
X47424Y101403D01*
Y101403D01*
X47435Y101401D01*
X47754Y100881D01*
X47933Y100448D01*
X47934Y100448D01*
X48116Y99910D01*
X48267Y99151D01*
X48259Y99139D01*
X48259D01*
X48302Y98845D01*
X48345Y97972D01*
X48329Y97640D01*
X48323Y97517D01*
X48323D01*
X48315Y97349D01*
X48327Y97343D01*
X48328Y97342D01*
X48328Y97342D01*
X48333Y97340D01*
X48333Y97340D01*
X48338Y97342D01*
X48454Y97459D01*
X48542Y97546D01*
X49731Y98735D01*
X50706Y97760D01*
X41302Y88355D01*
X40326Y89331D01*
X47173Y96177D01*
X47173Y96177D01*
X47174Y96181D01*
X47177Y96181D01*
X47213Y96423D01*
X47260Y97378D01*
X47213Y98333D01*
X47122Y98946D01*
X47130Y98947D01*
X47003Y99479D01*
X46784Y100007D01*
X46485Y100494D01*
X46134Y100906D01*
X46134D01*
X46066Y100977D01*
X46039Y101000D01*
X45668Y101317D01*
X45221Y101591D01*
X45216Y101593D01*
X45094Y101645D01*
X45038Y101675D01*
X44970Y101696D01*
X44692Y101780D01*
X44332Y101815D01*
X44047Y101787D01*
X44045Y101795D01*
X44045Y101795D01*
X44021Y101793D01*
X43915Y101761D01*
X43500Y101635D01*
X43046Y101392D01*
X43020Y101378D01*
X42939Y101312D01*
X42941Y101310D01*
X42424Y100926D01*
X41783Y100346D01*
X41773Y100336D01*
X41693Y100249D01*
X41603Y100151D01*
X35551Y94099D01*
X34575Y95074D01*
X41421Y101921D01*
X41423Y101925D01*
X41424Y101925D01*
X41465Y102203D01*
X41508Y103061D01*
X41465Y103919D01*
X41346Y104722D01*
X41342Y104721D01*
X41227Y105200D01*
X40990Y105773D01*
X40666Y106301D01*
X40378Y106639D01*
X40297Y106736D01*
X40297Y106737D01*
X40294Y106739D01*
X40180Y106840D01*
X40080Y106928D01*
X39871Y107106D01*
X39871Y107106D01*
X39786Y107178D01*
X39768Y107189D01*
X39659Y107256D01*
X39659Y107255D01*
X39450Y107384D01*
X39448Y107381D01*
X39332Y107443D01*
X39242Y107491D01*
X39207Y107509D01*
X39029Y107563D01*
X39029D01*
X39027Y107563D01*
X39027Y107563D01*
X38903Y107601D01*
X38823Y107625D01*
X38814Y107626D01*
X38699Y107638D01*
X38694Y107638D01*
X38690Y107638D01*
X38480Y107659D01*
X38203Y107632D01*
X38203Y107633D01*
X38203Y107633D01*
X38145Y107628D01*
X37996Y107583D01*
X37996Y107583D01*
X37996Y107583D01*
X37781Y107517D01*
X37782Y107514D01*
X37561Y107422D01*
X37561Y107423D01*
X37458Y107380D01*
X37448Y107374D01*
X37448Y107374D01*
X37440Y107369D01*
X37333Y107307D01*
X37282Y107282D01*
X37212Y107236D01*
X37102Y107162D01*
X36860Y107001D01*
X36860Y107001D01*
X36753Y106920D01*
X36715Y106894D01*
X36608Y106819D01*
X36461Y106688D01*
X36361Y106600D01*
X35924Y106204D01*
X35841Y106129D01*
X35828Y106114D01*
X35744Y106015D01*
X29693Y99964D01*
X28785Y100873D01*
X28785Y101007D01*
X34957Y107155D01*
X34957Y107154D01*
X34977Y107176D01*
X35538Y107685D01*
X35639Y107772D01*
X35817Y107931D01*
X36191Y108196D01*
X36300Y108272D01*
X36411Y108346D01*
X36666Y108516D01*
X36943Y108653D01*
X36943Y108653D01*
X36943Y108653D01*
X37249Y108804D01*
X37570Y108913D01*
X37696Y108957D01*
X38077Y109048D01*
X38550Y109086D01*
X39022Y109048D01*
D02*
G37*
G36*
X82108Y110689D02*
X82109Y110689D01*
X82504Y110637D01*
X82873Y110484D01*
X83189Y110241D01*
X83190Y110241D01*
X95690Y97741D01*
X95690Y97741D01*
X95933Y97424D01*
X96086Y97055D01*
X96138Y96660D01*
X96137Y96659D01*
X96138Y96659D01*
X96086Y96264D01*
X95933Y95895D01*
X95768Y95680D01*
X95690Y95578D01*
X95595Y95484D01*
X80762Y80651D01*
X80755Y80659D01*
X80625Y80464D01*
X80579Y80234D01*
X80625Y80004D01*
X80755Y79809D01*
X80757Y79807D01*
X80856Y79723D01*
X91131Y69448D01*
X91130Y69447D01*
X91255Y69260D01*
X91299Y69039D01*
X91274Y68916D01*
X91255Y68819D01*
X91130Y68632D01*
X90943Y68507D01*
X90722Y68463D01*
X90599Y68487D01*
X90502Y68507D01*
X90315Y68632D01*
X90313Y68630D01*
X79791Y79153D01*
X79791Y79153D01*
X79551Y79466D01*
X79398Y79836D01*
X79361Y80114D01*
X79347Y80242D01*
X79398Y80629D01*
X79551Y80998D01*
X79795Y81315D01*
X79806Y81324D01*
X79805Y81325D01*
X79805Y81325D01*
X94630Y96151D01*
X94730Y96235D01*
X94730Y96235D01*
X94861Y96430D01*
X94907Y96662D01*
X94861Y96893D01*
X94731Y97086D01*
X94724Y97079D01*
X94724Y97079D01*
X82528Y109275D01*
X82528Y109275D01*
X82535Y109283D01*
X82341Y109412D01*
X82110Y109458D01*
X81879Y109412D01*
X81683Y109281D01*
X81691Y109273D01*
X66858Y94440D01*
X66764Y94346D01*
X66660Y94266D01*
X66447Y94102D01*
X66078Y93949D01*
X65681Y93897D01*
X65284Y93949D01*
X64915Y94102D01*
X64600Y94344D01*
X64600Y94344D01*
X60177Y98767D01*
X60177Y98770D01*
X60177D01*
X60053Y98955D01*
X60033Y99058D01*
X60011Y99182D01*
X60053Y99396D01*
X60114Y99487D01*
X60183Y99586D01*
X60188Y99589D01*
X60292Y99661D01*
X60374Y99716D01*
X60594Y99760D01*
X60815Y99716D01*
X61000Y99592D01*
Y99592D01*
X61000Y99592D01*
X61003Y99592D01*
X65180Y95415D01*
X65264Y95316D01*
X65266Y95314D01*
X65461Y95183D01*
X65689Y95138D01*
X65691Y95138D01*
X65921Y95183D01*
X66116Y95314D01*
X66116Y95314D01*
X66199Y95413D01*
X80933Y110146D01*
X81027Y110241D01*
X81131Y110321D01*
X81344Y110484D01*
X81713Y110637D01*
X82108Y110689D01*
X82108Y110689D01*
D02*
G37*
G36*
X100001Y93284D02*
X100177Y93210D01*
X100329Y93094D01*
X100357Y93057D01*
X100366Y93064D01*
X111999Y81432D01*
X111999Y81431D01*
X112242Y81115D01*
X112395Y80746D01*
X112447Y80351D01*
X112447Y80350D01*
X112447Y80350D01*
X112395Y79955D01*
X112242Y79586D01*
X111999Y79269D01*
X111999Y79269D01*
X101230Y68500D01*
X101228Y68502D01*
X101041Y68376D01*
X100945Y68357D01*
X100821Y68333D01*
X100600Y68376D01*
X100520Y68430D01*
X100413Y68502D01*
X100413Y68502D01*
X100289Y68688D01*
X100245Y68907D01*
X100289Y69127D01*
X100413Y69313D01*
X100416Y69314D01*
X100414Y69316D01*
X100414Y69316D01*
X111029Y79931D01*
X111045D01*
X111176Y80127D01*
X111222Y80358D01*
X111176Y80589D01*
X111045Y80785D01*
X111037Y80777D01*
X100429Y91385D01*
X100345Y91485D01*
X100345Y91487D01*
X100344Y91488D01*
X100222Y91539D01*
X100099Y91488D01*
X100099Y91487D01*
X100058Y91389D01*
X100043Y91258D01*
X96033Y64661D01*
X96031Y64660D01*
X96050Y64561D01*
X96075Y64525D01*
X96076Y64523D01*
X107899Y52701D01*
X107983Y52601D01*
X107985Y52599D01*
X108180Y52469D01*
X108408Y52423D01*
Y52423D01*
X108410Y52423D01*
X108640Y52469D01*
X108835Y52599D01*
X108835D01*
X108918Y52698D01*
X124335Y68115D01*
X124337Y68114D01*
X124524Y68239D01*
X124744Y68283D01*
X124965Y68239D01*
X125150Y68116D01*
X125150Y68116D01*
X125223Y68007D01*
X125275Y67929D01*
X125294Y67832D01*
X125319Y67708D01*
X125275Y67488D01*
X125150Y67301D01*
X125151Y67299D01*
X109575Y51723D01*
X109481Y51629D01*
X109377Y51549D01*
X109164Y51385D01*
X108794Y51232D01*
X108398Y51180D01*
X108001Y51232D01*
X107632Y51385D01*
X107317Y51627D01*
X107317Y51627D01*
X95254Y63690D01*
X95254Y63700D01*
X95070Y63940D01*
X94932Y64274D01*
X94884Y64633D01*
X94910Y64829D01*
Y64829D01*
X94899Y64843D01*
X99073Y92638D01*
X99074Y92639D01*
X99085Y92638D01*
X99102Y92765D01*
X99175Y92942D01*
X99292Y93094D01*
X99444Y93210D01*
X99621Y93284D01*
X99811Y93309D01*
X100001Y93284D01*
D02*
G37*
G36*
X54282Y93667D02*
X54784Y93547D01*
X54785Y93546D01*
X54785Y93546D01*
Y93546D01*
X55277Y93342D01*
X55391Y93274D01*
X55508Y93209D01*
X56015Y92871D01*
X56487Y92457D01*
X56568Y92377D01*
X56581Y92362D01*
X56670Y92265D01*
X57047Y91843D01*
X57240Y91571D01*
X57317Y91462D01*
X57527Y91147D01*
X57768Y90659D01*
X57824Y90540D01*
X57869Y90416D01*
X58065Y89839D01*
X58196Y89178D01*
X58192Y89173D01*
X58229Y88955D01*
X58282Y88013D01*
X58265Y87705D01*
X58258Y87582D01*
X58249Y87414D01*
X58262Y87408D01*
X58262Y87408D01*
X58268Y87405D01*
X58273Y87407D01*
X58389Y87523D01*
X58389Y87523D01*
X58476Y87611D01*
X63560Y92682D01*
X64535Y91707D01*
X51243Y78415D01*
X50267Y79390D01*
X57137Y86260D01*
X57139Y86265D01*
X57144Y86264D01*
X57186Y87105D01*
X57137Y88102D01*
X57007Y88974D01*
X56990Y89088D01*
X56986Y89106D01*
X56978Y89104D01*
X56870Y89555D01*
X56628Y90138D01*
X56298Y90676D01*
X55904Y91137D01*
Y91137D01*
X55826Y91222D01*
X55812Y91233D01*
X55309Y91664D01*
X54829Y91957D01*
X54729Y92019D01*
X54713Y92025D01*
X54590Y92079D01*
X54581Y92084D01*
X54156Y92213D01*
X53714Y92256D01*
X53557Y92241D01*
X53557Y92240D01*
X53425Y92227D01*
X53313Y92216D01*
X52805Y92062D01*
X52382Y91836D01*
X52382Y91836D01*
X51779Y91408D01*
X51221Y90909D01*
X51194Y90886D01*
X51129Y90813D01*
X51040Y90715D01*
X44991Y84667D01*
X44015Y85642D01*
X50242Y91869D01*
X50243Y91869D01*
X50244Y91868D01*
X50259Y91884D01*
X50825Y92398D01*
X50927Y92484D01*
X50927Y92484D01*
X51036Y92581D01*
X51486Y92901D01*
X51598Y92974D01*
X51841Y93136D01*
X52255Y93340D01*
X52376Y93399D01*
X52728Y93545D01*
X53237Y93667D01*
X53759Y93708D01*
X54282Y93667D01*
D02*
G37*
G36*
X64152Y83198D02*
X64807Y83068D01*
X65400Y82867D01*
X65405Y82855D01*
X65729Y82722D01*
X66344Y82382D01*
X66917Y81975D01*
X67401Y81542D01*
X67494Y81446D01*
X67592Y81355D01*
X68086Y80791D01*
X68537Y80116D01*
X68884Y79413D01*
X68883Y79410D01*
X69090Y78799D01*
X69221Y78141D01*
X69265Y77473D01*
X69241Y77114D01*
X69242Y77114D01*
X69221Y76799D01*
X69063Y76004D01*
X68803Y75237D01*
X68548Y74720D01*
X68548Y74720D01*
X68550Y74711D01*
X68067Y73906D01*
X67454Y73079D01*
X66763Y72316D01*
X66000Y71625D01*
X65174Y71012D01*
X64369Y70530D01*
X64359Y70532D01*
X64176Y70431D01*
X63515Y70157D01*
X62828Y69959D01*
X62123Y69839D01*
X61947Y69830D01*
X61947Y69832D01*
X61563Y69807D01*
X60910Y69849D01*
X60267Y69977D01*
X59666Y70181D01*
X59661Y70192D01*
Y70192D01*
X59420Y70292D01*
X58764Y70655D01*
X58153Y71088D01*
X57595Y71588D01*
X57095Y72146D01*
X56661Y72758D01*
X56299Y73413D01*
X56199Y73655D01*
X56190Y73659D01*
X55988Y74253D01*
X55857Y74913D01*
X55813Y75585D01*
X55837Y75954D01*
X55834Y75954D01*
X55843Y76114D01*
X55962Y76812D01*
X56157Y77492D01*
X56428Y78146D01*
X56546Y78358D01*
X56546Y78358D01*
X56543Y78367D01*
X57015Y79155D01*
X57629Y79983D01*
X58321Y80746D01*
X59085Y81439D01*
X59913Y82053D01*
X60701Y82525D01*
X60709Y82523D01*
X60709Y82523D01*
X60709Y82523D01*
D01*
Y82523D01*
X61223Y82776D01*
X61993Y83038D01*
X62792Y83197D01*
X63107Y83218D01*
X63108Y83217D01*
X63486Y83242D01*
X64152Y83198D01*
D02*
G37*
G36*
X86396Y69846D02*
X85432Y68882D01*
X77380Y76935D01*
X77279Y77035D01*
X77180Y77134D01*
X77178Y77135D01*
X77176Y77136D01*
X77176Y77136D01*
X77176Y77136D01*
X77175Y77136D01*
X77173Y77135D01*
X77171Y77134D01*
X77171Y77134D01*
X77170Y77134D01*
X77169Y77132D01*
X77168Y77130D01*
X77153Y76973D01*
X77140Y76849D01*
X75181Y57037D01*
X73901Y55757D01*
X63595Y66062D01*
X64557Y67024D01*
X73674Y57907D01*
X73762Y57819D01*
X73762Y57819D01*
X73874Y57707D01*
X73876Y57706D01*
X73878Y57705D01*
X73878Y57705D01*
X73879Y57705D01*
X73879Y57705D01*
X73881Y57706D01*
X73883Y57707D01*
X73883Y57707D01*
X73884Y57707D01*
X73884Y57707D01*
X73885Y57709D01*
X73886Y57712D01*
X73901Y57869D01*
X73913Y57992D01*
X75846Y77808D01*
X77140Y79102D01*
X86396Y69846D01*
D02*
G37*
G36*
X85407Y61789D02*
X85923Y61749D01*
X86529Y61603D01*
X87089Y61371D01*
X87093Y61361D01*
X87633Y61062D01*
X88295Y60592D01*
X88901Y60051D01*
X89015Y59923D01*
X89112Y59831D01*
X89355Y59566D01*
X89445Y59467D01*
X89670Y59219D01*
X89670Y59218D01*
X89793Y59083D01*
X89950Y58871D01*
X90031Y58766D01*
X90198Y58530D01*
Y58530D01*
X90198Y58530D01*
X90353Y58311D01*
X90421Y58196D01*
X90509Y58065D01*
X90608Y57864D01*
X90608Y57864D01*
X90710Y57657D01*
X90768Y57538D01*
X90775Y57523D01*
X90823Y57417D01*
X90891Y57215D01*
X90942Y57091D01*
X91033Y56713D01*
X91062Y56589D01*
X91076Y56458D01*
X91108Y56047D01*
X91067Y55529D01*
X90940Y54997D01*
X90840Y54757D01*
X90840D01*
X90789Y54633D01*
X90718Y54462D01*
X90704Y54456D01*
D01*
X90704Y54456D01*
X90704Y54456D01*
X90612Y54270D01*
X90544Y54155D01*
X90472Y54047D01*
X90220Y53669D01*
X90169Y53639D01*
X90063Y53636D01*
X89180Y54519D01*
X89315Y54684D01*
X89535Y55096D01*
X89671Y55544D01*
X89717Y56009D01*
X89675Y56434D01*
X89671Y56474D01*
X89645Y56562D01*
X89645Y56562D01*
X89579Y56780D01*
X89586Y56782D01*
X89495Y57004D01*
X89495Y57004D01*
X89398Y57237D01*
X89399Y57238D01*
X89390Y57262D01*
X89334Y57352D01*
X89268Y57460D01*
X89271Y57472D01*
X89184Y57601D01*
X89114Y57706D01*
X89114Y57708D01*
X89113Y57708D01*
X89044Y57811D01*
X88949Y57954D01*
X88942Y57955D01*
X88839Y58100D01*
X88780Y58183D01*
X88762Y58206D01*
X88762Y58206D01*
X88630Y58354D01*
X88541Y58455D01*
X88148Y58889D01*
X88071Y58973D01*
X88058Y58985D01*
X87963Y59079D01*
X87910Y59139D01*
X87377Y59606D01*
X86788Y60000D01*
X86396Y60193D01*
X86398Y60198D01*
X86398Y60198D01*
X86335Y60232D01*
X86274Y60250D01*
X85867Y60374D01*
X85381Y60422D01*
X85130Y60397D01*
X85001Y60385D01*
X84633Y60296D01*
X84212Y60122D01*
X83854Y59902D01*
X83825Y59884D01*
X83749Y59820D01*
X83644Y59736D01*
X83322Y59489D01*
X82614Y58840D01*
X82579Y58808D01*
X82579Y58808D01*
X82530Y58754D01*
X82533Y58744D01*
X82533Y58744D01*
X82535Y58738D01*
X82535Y58738D01*
X83661Y57613D01*
X83660Y57612D01*
X83667Y57605D01*
X84093Y57150D01*
X84185Y57053D01*
X84276Y56955D01*
X84590Y56617D01*
X84678Y56517D01*
X84768Y56419D01*
X84768Y56418D01*
X85031Y56085D01*
X85113Y55981D01*
X85196Y55876D01*
X85513Y55463D01*
X85513Y55462D01*
X85622Y55320D01*
X85859Y54948D01*
X85859D01*
X85932Y54836D01*
X86164Y54449D01*
X86164Y54448D01*
X86275Y54264D01*
X86420Y53956D01*
X86483Y53837D01*
X86633Y53475D01*
X86683Y53351D01*
X86867Y52811D01*
X86895Y52670D01*
X86920Y52542D01*
X87007Y52177D01*
X87057Y51551D01*
X87007Y50925D01*
X86861Y50315D01*
X86620Y49735D01*
X86292Y49199D01*
X85903Y48744D01*
X85837Y48681D01*
X85805Y48654D01*
X85805Y48654D01*
X85710Y48559D01*
X85345Y48248D01*
X84864Y47953D01*
X84618Y47851D01*
X84495Y47800D01*
X84495Y47800D01*
X84342Y47737D01*
X83807Y47609D01*
X83257Y47565D01*
X83044Y47582D01*
X83044Y47582D01*
X82703Y47609D01*
X82106Y47753D01*
X81707Y47918D01*
X81587Y47977D01*
X81295Y48121D01*
X80752Y48483D01*
X80332Y48852D01*
X80236Y48943D01*
X80143Y49039D01*
X79593Y49646D01*
X79385Y49926D01*
X79301Y50031D01*
X78937Y50576D01*
X78756Y50943D01*
X78698Y51060D01*
X78642Y51181D01*
X78408Y51745D01*
X78245Y52313D01*
X78214Y52443D01*
X78214Y52443D01*
X78102Y52892D01*
X77967Y53802D01*
X77963Y53870D01*
X77957Y53994D01*
X77950Y54147D01*
X77930Y54153D01*
X77925Y54151D01*
X77821Y54046D01*
X77733Y53959D01*
X76716Y52942D01*
X75740Y53917D01*
X81883Y60059D01*
X81883Y60059D01*
X81887Y60055D01*
X81943Y60118D01*
X82544Y60655D01*
X83200Y61121D01*
X83548Y61313D01*
X83546Y61316D01*
X83656Y61384D01*
X84208Y61612D01*
X84789Y61752D01*
X85275Y61790D01*
X85407Y61789D01*
D02*
G37*
G36*
X94659Y54292D02*
X94840Y54111D01*
X94840Y54107D01*
X94840Y54107D01*
X95344Y53532D01*
X95430Y53404D01*
X95437Y53402D01*
X95765Y52867D01*
X95942Y52440D01*
X95942Y52440D01*
X96115Y51930D01*
X96237Y51313D01*
X96256Y51180D01*
X96285Y51012D01*
X96330Y50210D01*
X96310Y49864D01*
X96303Y49740D01*
X96294Y49569D01*
X96305Y49562D01*
X96305D01*
X96310Y49560D01*
X96315Y49562D01*
X96317Y49565D01*
X96320Y49567D01*
X96321Y49568D01*
X96434Y49682D01*
X96522Y49769D01*
X97609Y50857D01*
X98585Y49881D01*
X89180Y40477D01*
X88205Y41453D01*
X94943Y48190D01*
X94944Y48194D01*
X94950Y48193D01*
X94978Y48293D01*
X94983Y48321D01*
X95106Y49042D01*
X95120Y49298D01*
X95128Y49431D01*
X95128Y49432D01*
X95128Y49432D01*
X95135Y49565D01*
X95152Y49860D01*
X95110Y50598D01*
X95095Y50713D01*
X95093Y50741D01*
X95073Y50845D01*
X94966Y51379D01*
X94787Y51907D01*
X94783Y51905D01*
X94674Y52168D01*
X94440Y52549D01*
X94231Y52794D01*
X94149Y52890D01*
X94146Y52893D01*
X94048Y52979D01*
X93875Y53152D01*
X93790Y53251D01*
X93781Y53262D01*
X93689Y53338D01*
X93553Y53449D01*
X93547Y53583D01*
X94449Y54467D01*
X94659Y54292D01*
D02*
G37*
G36*
X105925Y47478D02*
X103462Y45015D01*
X103460Y45009D01*
X103462Y45004D01*
X104669Y43797D01*
X103707Y42835D01*
X102500Y44042D01*
X102495Y44045D01*
X102490Y44043D01*
X96732Y38285D01*
X96732Y38285D01*
X96729Y38289D01*
X96645Y38199D01*
X95770Y37390D01*
X95430Y37122D01*
X95429Y37122D01*
X95263Y36980D01*
X94834Y36717D01*
X94422Y36547D01*
X94294Y36511D01*
Y36511D01*
X94172Y36474D01*
X93832Y36440D01*
X93493Y36474D01*
X93190Y36566D01*
X93187Y36573D01*
X92964Y36666D01*
X92497Y36951D01*
X92082Y37306D01*
X91991Y37413D01*
X91894Y37497D01*
X91860Y37531D01*
X91818Y37574D01*
X91818Y37574D01*
X91789Y37604D01*
X91705Y37710D01*
X91705Y37710D01*
X91589Y37842D01*
X91492Y37935D01*
X91464Y37968D01*
X91388Y38058D01*
X91312Y38149D01*
X91205Y38282D01*
X92037Y39117D01*
X92120Y39128D01*
X92207Y39112D01*
X92211Y39109D01*
X92252Y39067D01*
X92252Y39066D01*
X92273Y39045D01*
X92273Y39044D01*
X92294Y39023D01*
X92334Y38983D01*
Y38983D01*
X92474Y38843D01*
X92561Y38745D01*
X92591Y38710D01*
X92658Y38653D01*
X93038Y38328D01*
X93079Y38303D01*
X93191Y38233D01*
X93245Y38192D01*
X93305Y38167D01*
X93512Y38081D01*
X93730Y38052D01*
X93799Y38043D01*
X93862Y38052D01*
X93862Y38054D01*
X93862Y38054D01*
X93862Y38054D01*
X93862Y38055D01*
X94045Y38073D01*
X94366Y38170D01*
X94660Y38327D01*
X94656Y38333D01*
X95028Y38582D01*
X95588Y39073D01*
X95677Y39175D01*
X95677Y39181D01*
X101516Y45020D01*
X101518Y45025D01*
X101516Y45030D01*
X99966Y46581D01*
X100927Y47543D01*
X102478Y45992D01*
X102483Y45990D01*
X102488Y45992D01*
X104949Y48453D01*
X105925Y47478D01*
D02*
G37*
G36*
X116238Y40003D02*
X108555Y32320D01*
X108553Y32320D01*
Y32320D01*
X108302Y32090D01*
X107528Y31246D01*
X106832Y30338D01*
X106352Y29585D01*
X106351Y29586D01*
X106297Y29505D01*
X106281Y29472D01*
X106012Y28927D01*
X105805Y28317D01*
X105679Y27685D01*
X105663Y27433D01*
X105654Y27303D01*
X105654Y27302D01*
X105647Y27303D01*
X105642Y27248D01*
X105649Y27169D01*
X105689Y26658D01*
X105827Y26081D01*
X106054Y25534D01*
X106219Y25264D01*
X106219Y25264D01*
X106218Y25264D01*
X106405Y24952D01*
X107022Y24120D01*
X107695Y23377D01*
X107718Y23352D01*
X107792Y23285D01*
X107865Y23206D01*
X108611Y22529D01*
X109420Y21929D01*
X109752Y21730D01*
X109867Y21661D01*
X110006Y21575D01*
X110575Y21340D01*
X111173Y21196D01*
X111785Y21148D01*
X111785Y21158D01*
X112241Y21188D01*
X112860Y21311D01*
X113458Y21514D01*
X113973Y21768D01*
X114024Y21793D01*
X114088Y21836D01*
X114088Y21836D01*
X114887Y22345D01*
X115782Y23032D01*
X116615Y23795D01*
X116837Y24037D01*
X116837D01*
X116837Y24037D01*
X116837Y24039D01*
X124520Y31722D01*
X125495Y30747D01*
X117773Y23025D01*
X117645Y22898D01*
X117638Y22898D01*
X117227Y22511D01*
X117227Y22511D01*
X117129Y22419D01*
X116810Y22117D01*
D01*
X116809Y22105D01*
X116391Y21728D01*
X116374Y21729D01*
X116106Y21487D01*
X115338Y20917D01*
X114825Y20610D01*
X114825Y20610D01*
X114825Y20610D01*
X114825Y20609D01*
X114354Y20348D01*
X113628Y20047D01*
X113113Y19899D01*
X113113D01*
X113108Y19891D01*
X112538Y19778D01*
X111923Y19737D01*
X111363Y19774D01*
X111232Y19794D01*
X111232Y19794D01*
X111102Y19820D01*
X110617Y19917D01*
X109855Y20175D01*
X109153Y20522D01*
X109149Y20536D01*
X108571Y20882D01*
X107749Y21492D01*
X106990Y22180D01*
X106851Y22333D01*
X106853Y22335D01*
X106638Y22530D01*
X105998Y23236D01*
X105431Y24001D01*
X104941Y24818D01*
X104745Y25233D01*
X104743Y25232D01*
X104655Y25411D01*
X104442Y26040D01*
X104312Y26691D01*
X104269Y27354D01*
X104306Y27931D01*
X104311Y27935D01*
X104311D01*
Y27935D01*
X104396Y28434D01*
X104592Y29116D01*
X104864Y29771D01*
X105207Y30392D01*
X105330Y30565D01*
X105331Y30564D01*
X105728Y31158D01*
X106529Y32174D01*
X107407Y33125D01*
X107544Y33251D01*
X107539Y33255D01*
X107539Y33255D01*
X115263Y40979D01*
X116238Y40003D01*
D02*
G37*
G36*
X111830Y44412D02*
X98538Y31120D01*
X97562Y32095D01*
X110854Y45388D01*
X111830Y44412D01*
D02*
G37*
%LPC*%
G36*
X95254Y63700D02*
Y63700D01*
D01*
Y63700D01*
D02*
G37*
G36*
X63491Y81864D02*
X63335Y81852D01*
X63202Y81843D01*
X63202Y81843D01*
X63202Y81843D01*
X62982Y81828D01*
X62356Y81704D01*
X61751Y81498D01*
X61293Y81272D01*
X61293Y81273D01*
X60681Y80906D01*
X59967Y80376D01*
X59308Y79779D01*
X58711Y79121D01*
X58182Y78407D01*
X57815Y77794D01*
X57757Y77677D01*
X57582Y77322D01*
X57370Y76698D01*
X57241Y76052D01*
X57230Y75872D01*
X57231Y75871D01*
X57231Y75870D01*
X57205Y75537D01*
X57252Y74940D01*
X57392Y74359D01*
X57502Y74092D01*
X57495Y74089D01*
X57758Y73555D01*
X58107Y73033D01*
X58474Y72614D01*
X58521Y72560D01*
X58568Y72519D01*
X58614Y72468D01*
X59091Y72049D01*
X59618Y71697D01*
X60149Y71435D01*
X60152Y71442D01*
X60419Y71332D01*
X61000Y71192D01*
X61597Y71145D01*
X61930Y71171D01*
X61931Y71171D01*
X61932Y71171D01*
X61932Y71170D01*
X62107Y71181D01*
X62741Y71307D01*
X63354Y71515D01*
X63849Y71759D01*
X63848Y71762D01*
X64408Y72098D01*
X65146Y72645D01*
X65826Y73262D01*
X66442Y73942D01*
X66989Y74679D01*
X67325Y75240D01*
X67328Y75238D01*
X67565Y75719D01*
X67766Y76312D01*
X67889Y76927D01*
X67903Y77142D01*
X67912Y77275D01*
X67912Y77276D01*
X67924Y77431D01*
X67877Y78039D01*
X67734Y78632D01*
X67619Y78910D01*
X67624Y78912D01*
X67374Y79419D01*
X66997Y79982D01*
X66551Y80491D01*
X66042Y80937D01*
X65479Y81314D01*
X64972Y81564D01*
X64970Y81559D01*
X64692Y81674D01*
X64099Y81817D01*
X63491Y81864D01*
D02*
G37*
G36*
X56199Y73655D02*
D01*
X56199Y73655D01*
X56199Y73655D01*
D02*
G37*
G36*
X81562Y57785D02*
X81557Y57783D01*
X79104Y55330D01*
X79102Y55325D01*
X79102D01*
X79084Y54961D01*
X79125Y54141D01*
X79128Y54138D01*
X79141Y53912D01*
X79281Y53087D01*
X79354Y52834D01*
X79354Y52834D01*
X79490Y52364D01*
X79764Y51702D01*
X79848Y51549D01*
Y51549D01*
Y51549D01*
X79851Y51548D01*
X79952Y51345D01*
X80273Y50864D01*
X80654Y50429D01*
X80666Y50414D01*
X80668Y50412D01*
X80805Y50290D01*
X80904Y50201D01*
X80904Y50201D01*
X81132Y49997D01*
X81233Y49911D01*
X81322Y49833D01*
X81358Y49810D01*
X81358Y49810D01*
X81481Y49728D01*
X81591Y49655D01*
X81591Y49654D01*
X81592Y49654D01*
X81592D01*
X81593Y49654D01*
X81703Y49580D01*
X81817Y49504D01*
X81827Y49506D01*
X82033Y49379D01*
X82277Y49278D01*
X82277Y49278D01*
X82277Y49278D01*
X82535Y49171D01*
X82956Y49070D01*
X82955Y49067D01*
X83363Y49027D01*
X83782Y49068D01*
X84186Y49191D01*
X84557Y49389D01*
X84883Y49657D01*
X84936Y49714D01*
X84974Y49745D01*
X85028Y49811D01*
X85312Y50157D01*
X85563Y50627D01*
X85718Y51137D01*
X85770Y51667D01*
X85718Y52198D01*
X85623Y52511D01*
X85624Y52511D01*
X85571Y52729D01*
X85522Y52849D01*
X85475Y52974D01*
X85441Y53074D01*
X85382Y53194D01*
X85382Y53195D01*
X85208Y53549D01*
X85207Y53549D01*
X85004Y53916D01*
X85005Y53916D01*
X84939Y54035D01*
X84763Y54282D01*
X84765Y54292D01*
X84484Y54671D01*
X84484Y54671D01*
X84484Y54671D01*
X84180Y55068D01*
Y55068D01*
X84175Y55068D01*
X83989Y55305D01*
X83927Y55372D01*
X83838Y55471D01*
X83147Y56213D01*
X83077Y56289D01*
X83055Y56309D01*
X82956Y56394D01*
X81567Y57783D01*
X81562Y57785D01*
D02*
G37*
G36*
X116810Y22117D02*
X116810D01*
X116810Y22117D01*
Y22117D01*
D02*
G37*
%LPD*%
D11*
X139223Y34635D02*
X138567Y35291D01*
Y36603D01*
X139223Y37259D01*
X139879D01*
X140535Y36603D01*
Y35291D01*
X141191Y34635D01*
X141847D01*
X142503Y35291D01*
Y36603D01*
X141847Y37259D01*
X138567Y33323D02*
X142503D01*
X140535D01*
X139879Y32667D01*
Y31356D01*
X140535Y30700D01*
X142503D01*
Y28732D02*
Y27420D01*
X141847Y26764D01*
X140535D01*
X139879Y27420D01*
Y28732D01*
X140535Y29388D01*
X141847D01*
X142503Y28732D01*
X139879Y25452D02*
X142503D01*
X141191D01*
X140535Y24796D01*
X139879Y24140D01*
Y23484D01*
X139223Y20860D02*
X139879D01*
Y21516D01*
Y20204D01*
Y20860D01*
X141847D01*
X142503Y20204D01*
Y14301D02*
X138567D01*
X142503Y11677D01*
X138567D01*
X142503Y8397D02*
Y9709D01*
X141847Y10365D01*
X140535D01*
X139879Y9709D01*
Y8397D01*
X140535Y7741D01*
X141191D01*
Y10365D01*
X143815Y5117D02*
Y4461D01*
X143159Y3805D01*
X139879D01*
Y5773D01*
X140535Y6429D01*
X141847D01*
X142503Y5773D01*
Y3805D01*
Y2493D02*
X141847D01*
Y1837D01*
X142503D01*
Y2493D01*
X147148Y27420D02*
X146492Y28076D01*
Y29388D01*
X147148Y30044D01*
X147804D01*
X148460Y29388D01*
Y28076D01*
X149116Y27420D01*
X149772D01*
X150428Y28076D01*
Y29388D01*
X149772Y30044D01*
X150428Y26108D02*
Y24796D01*
Y25452D01*
X147804D01*
Y26108D01*
X151740Y21516D02*
Y20860D01*
X151084Y20204D01*
X147804D01*
Y22172D01*
X148460Y22828D01*
X149772D01*
X150428Y22172D01*
Y20204D01*
Y18892D02*
X147804D01*
Y16924D01*
X148460Y16269D01*
X150428D01*
X147804Y14301D02*
Y12989D01*
X148460Y12333D01*
X150428D01*
Y14301D01*
X149772Y14956D01*
X149116Y14301D01*
Y12333D01*
X150428Y11021D02*
Y9709D01*
Y10365D01*
X146492D01*
Y11021D01*
X150428Y7741D02*
Y5773D01*
X149772Y5117D01*
X149116Y5773D01*
Y7085D01*
X148460Y7741D01*
X147804Y7085D01*
Y5117D01*
X140535Y155245D02*
X139879Y155901D01*
Y157212D01*
X140535Y157868D01*
X141191D01*
X141847Y157212D01*
Y155901D01*
X142503Y155245D01*
X143159D01*
X143815Y155901D01*
Y157212D01*
X143159Y157868D01*
X139879Y153933D02*
X143815D01*
X141847D01*
X141191Y153277D01*
Y151965D01*
X141847Y151309D01*
X143815D01*
Y149341D02*
Y148029D01*
X143159Y147373D01*
X141847D01*
X141191Y148029D01*
Y149341D01*
X141847Y149997D01*
X143159D01*
X143815Y149341D01*
X141191Y146061D02*
X143815D01*
X142503D01*
X141847Y145405D01*
X141191Y144749D01*
Y144093D01*
X140535Y141469D02*
X141191D01*
Y142125D01*
Y140813D01*
Y141469D01*
X143159D01*
X143815Y140813D01*
Y134910D02*
X139879D01*
Y132942D01*
X140535Y132286D01*
X141847D01*
X142503Y132942D01*
Y134910D01*
X143815Y130318D02*
Y129006D01*
X143159Y128350D01*
X141847D01*
X141191Y129006D01*
Y130318D01*
X141847Y130974D01*
X143159D01*
X143815Y130318D01*
Y127038D02*
Y125071D01*
X143159Y124415D01*
X142503Y125071D01*
Y126382D01*
X141847Y127038D01*
X141191Y126382D01*
Y124415D01*
X143815Y123103D02*
X143159D01*
Y122447D01*
X143815D01*
Y123103D01*
X147148Y148029D02*
X146492Y148685D01*
Y149997D01*
X147148Y150653D01*
X147804D01*
X148460Y149997D01*
Y148685D01*
X149116Y148029D01*
X149772D01*
X150428Y148685D01*
Y149997D01*
X149772Y150653D01*
X150428Y146717D02*
Y145405D01*
Y146061D01*
X147804D01*
Y146717D01*
X151740Y142125D02*
Y141469D01*
X151084Y140813D01*
X147804D01*
Y142781D01*
X148460Y143437D01*
X149772D01*
X150428Y142781D01*
Y140813D01*
Y139502D02*
X147804D01*
Y137534D01*
X148460Y136878D01*
X150428D01*
X147804Y134910D02*
Y133598D01*
X148460Y132942D01*
X150428D01*
Y134910D01*
X149772Y135566D01*
X149116Y134910D01*
Y132942D01*
X150428Y131630D02*
Y130318D01*
Y130974D01*
X146492D01*
Y131630D01*
X150428Y128350D02*
Y126382D01*
X149772Y125726D01*
X149116Y126382D01*
Y127694D01*
X148460Y128350D01*
X147804Y127694D01*
Y125726D01*
D28*
X85815Y48643D02*
G03*
X86939Y52547I-2760J2908D01*
G01*
X47168Y96182D02*
G03*
X47114Y98945I-9655J1196D01*
G01*
X41416Y101926D02*
G03*
X41332Y104719I-8664J1135D01*
G01*
X58577Y72529D02*
G03*
X60154Y71449I3465J3368D01*
G01*
X96310Y49568D02*
G03*
X96272Y51182I-7146J642D01*
G01*
X106225Y25268D02*
G03*
X107802Y23296I8962J5553D01*
G01*
X68893Y79414D02*
G03*
X67505Y81456I-5725J-2397D01*
G01*
X67613Y78907D02*
G03*
X64967Y81553I-4722J-2076D01*
G01*
X56182Y73647D02*
G03*
X59654Y70175I6138J2666D01*
G01*
X104727Y25224D02*
G03*
X106840Y22322I8777J4171D01*
G01*
X54788Y93556D02*
G03*
X52247Y93357I-1029J-3186D01*
G01*
X65413Y82874D02*
G03*
X63106Y83237I-1927J-4737D01*
G01*
X69261Y77113D02*
G03*
X68893Y79414I-5121J359D01*
G01*
X105314Y30575D02*
G03*
X104293Y27937I5248J-3548D01*
G01*
X41331Y104719D02*
G03*
X40285Y106725I-3861J-740D01*
G01*
X42580Y102931D02*
G03*
X42649Y104554I-6116J1073D01*
G01*
X47114Y98945D02*
G03*
X46123Y100894I-3576J-592D01*
G01*
X52390Y91823D02*
G03*
X51138Y90804I3745J-5879D01*
G01*
X56968Y89102D02*
G03*
X55892Y91125I-3925J-791D01*
G01*
X58268Y87413D02*
G03*
X58209Y89175I-8402J600D01*
G01*
X64967Y81553D02*
G03*
X63203Y81835I-1476J-3575D01*
G01*
X63106Y83237D02*
G03*
X60701Y82539I498J-6209D01*
G01*
X56529Y78367D02*
G03*
X55817Y75956I5588J-2960D01*
G01*
Y75956D02*
G03*
X56182Y73647I5142J-371D01*
G01*
X57509Y74094D02*
G03*
X58577Y72529I4410J1863D01*
G01*
X68563Y74712D02*
G03*
X69261Y77113I-5486J2897D01*
G01*
X67895Y77143D02*
G03*
X67613Y78907I-3856J289D01*
G01*
X61949Y69812D02*
G03*
X64368Y70516I-540J6365D01*
G01*
X59654Y70175D02*
G03*
X61949Y69812I1910J4641D01*
G01*
X100332Y91472D02*
G03*
X100174Y91512I-110J-106D01*
G01*
X95695Y95573D02*
G03*
X96145Y96659I-1086J1086D01*
G01*
X86651Y53482D02*
G03*
X86438Y53965I-6807J-2713D01*
G01*
X79110Y55325D02*
G03*
X79137Y54142I9791J-363D01*
G01*
X79857Y51553D02*
G03*
X80679Y50427I3924J2003D01*
G01*
X77930Y54146D02*
G03*
X78195Y52438I9371J576D01*
G01*
X90859Y54749D02*
G03*
X91046Y55357I-3352J1363D01*
G01*
X83043Y47563D02*
G03*
X84502Y47783I214J3515D01*
G01*
X104293Y27937D02*
G03*
X104727Y25224I5055J-583D01*
G01*
X113118Y19881D02*
G03*
X114835Y20593I-1807J6787D01*
G01*
X107802Y23296D02*
G03*
X109756Y21736I7322J7169D01*
G01*
X42343Y105916D02*
G03*
X41763Y107040I-4887J-1809D01*
G01*
X40075Y106923D02*
G03*
X39865Y107097I-2725J-3065D01*
G01*
X39358Y108987D02*
G03*
X37564Y108932I-808J-2922D01*
G01*
X41763Y107040D02*
G03*
X41010Y107951I-5298J-3614D01*
G01*
X37565Y107413D02*
G03*
X37339Y107296I1549J-3283D01*
G01*
X48278Y99142D02*
G03*
X47950Y100455I-6112J-826D01*
G01*
X47440Y101415D02*
G03*
X46826Y102135I-5062J-3692D01*
G01*
X46826Y102135D02*
G03*
X44825Y103288I-2896J-2712D01*
G01*
X44048Y101778D02*
G03*
X42946Y101303I514J-2709D01*
G01*
X83195Y110246D02*
G03*
X82108Y110696I-1086J-1086D01*
G01*
X82522Y109270D02*
G03*
X81696Y109268I-412J-416D01*
G01*
X57834Y90544D02*
G03*
X57256Y91583I-4671J-1917D01*
G01*
X56590Y92371D02*
G03*
X55399Y93288I-3801J-3705D01*
G01*
X55892Y91125D02*
G03*
X54705Y92009I-3131J-2967D01*
G01*
X57132Y86265D02*
G03*
X56968Y89102I-10109J840D01*
G01*
X67505Y81456D02*
G03*
X65413Y82874I-4495J-4381D01*
G01*
X57239Y75871D02*
G03*
X57509Y74094I3777J-334D01*
G01*
X60154Y71449D02*
G03*
X61931Y71178I1442J3507D01*
G01*
X79339Y80242D02*
G03*
X79786Y79148I1539J-10D01*
G01*
X90782Y57545D02*
G03*
X90624Y57872I-4719J-2083D01*
G01*
X88535Y58449D02*
G03*
X88045Y58972I-7882J-6894D01*
G01*
X89682Y59228D02*
G03*
X89370Y59579I-8439J-7202D01*
G01*
X88045Y58972D02*
G03*
X86393Y60187I-3967J-3665D01*
G01*
X89027Y59934D02*
G03*
X87100Y61376I-5246J-5003D01*
G01*
X87100Y61376D02*
G03*
X85275Y61805I-1799J-3549D01*
G01*
X89634Y56559D02*
G03*
X89572Y56778I-2599J-619D01*
G01*
X85003Y60374D02*
G03*
X83755Y59812I526J-2835D01*
G01*
X84199Y57066D02*
G03*
X83666Y57618I-16488J-15417D01*
G01*
X85525Y55471D02*
G03*
X85129Y55993I-11389J-8231D01*
G01*
X85616Y52509D02*
G03*
X85511Y52845I-4054J-1083D01*
G01*
X84753Y54283D02*
G03*
X84478Y54667I-8361J-5689D01*
G01*
X83828Y55463D02*
G03*
X83043Y56297I-13590J-12011D01*
G01*
X82279Y49285D02*
G03*
X82958Y49083I1205J2807D01*
G01*
X79362Y52837D02*
G03*
X79857Y51553I6152J1635D01*
G01*
X79370Y49915D02*
G03*
X80227Y48935I7588J5776D01*
G01*
X78195Y52438D02*
G03*
X78682Y51052I7122J1724D01*
G01*
X80227Y48935D02*
G03*
X81578Y47959I3562J3508D01*
G01*
X94776Y51902D02*
G03*
X94135Y52882I-2643J-1029D01*
G01*
X95959Y52446D02*
G03*
X95442Y53412I-4051J-1545D01*
G01*
X95121Y49432D02*
G03*
X95079Y50711I-6561J428D01*
G01*
X125328Y67708D02*
G03*
X125156Y68123I-586J0D01*
G01*
X107311Y51622D02*
G03*
X109486Y51624I1086J1090D01*
G01*
X92572Y38755D02*
G03*
X93197Y38241I2666J2602D01*
G01*
X93179Y36555D02*
G03*
X94299Y36492I653J1625D01*
G01*
X105661Y27302D02*
G03*
X106225Y25268I3758J-54D01*
G01*
X109756Y21736D02*
G03*
X111785Y21167I2031J3334D01*
G01*
X106840Y22322D02*
G03*
X109139Y20520I7528J7236D01*
G01*
X109139Y20520D02*
G03*
X111229Y19779I3070J5339D01*
G01*
X60701Y82539D02*
G03*
X56529Y78367I5048J-9220D01*
G01*
X61298Y81263D02*
G03*
X57824Y77789I4414J-7888D01*
G01*
X63843Y71770D02*
G03*
X67317Y75244I-4631J8105D01*
G01*
X64368Y70516D02*
G03*
X68563Y74712I-5021J9216D01*
G01*
X44825Y103288D02*
G03*
X42580Y102931I-621J-3336D01*
G01*
X84926Y49725D02*
G03*
X85616Y52509I-1874J1942D01*
G01*
X106361Y29579D02*
G03*
X105661Y27302I4200J-2537D01*
G01*
X111785Y21167D02*
G03*
X114082Y21847I-173J4804D01*
G01*
X114835Y20593D02*
G03*
X116387Y21715I-4914J8431D01*
G01*
X36620Y106805D02*
G03*
X36367Y106594I4898J-6135D01*
G01*
X35628Y107785D02*
G03*
X34951Y107160I6990J-8250D01*
G01*
X37564Y108932D02*
G03*
X36934Y108671I1360J-4169D01*
G01*
X38820Y107610D02*
G03*
X38205Y107622I-340J-1663D01*
G01*
X42946Y101303D02*
G03*
X41702Y100240I5158J-7298D01*
G01*
X45089Y101636D02*
G03*
X44048Y101778I-757J-1665D01*
G01*
X48333Y97348D02*
G03*
X48278Y99142I-8901J624D01*
G01*
X50917Y92496D02*
G03*
X50237Y91874I6225J-7495D01*
G01*
X54705Y92009D02*
G03*
X53557Y92233I-991J-2020D01*
G01*
X82108Y110696D02*
G03*
X81022Y110246I0J-1536D01*
G01*
X63203Y81835D02*
G03*
X61298Y81263I417J-4848D01*
G01*
X57824Y77789D02*
G03*
X57239Y75871I4411J-2395D01*
G01*
X67317Y75244D02*
G03*
X67895Y77143I-4175J2308D01*
G01*
X61931Y71179D02*
G03*
X63843Y71770I-470J4907D01*
G01*
X99577Y93285D02*
G03*
X99066Y92639I234J-710D01*
G01*
X83755Y59812D02*
G03*
X82540Y58744I6992J-9171D01*
G01*
X83538Y61330D02*
G03*
X81878Y60065I3482J-6288D01*
G01*
X85275Y61805D02*
G03*
X83538Y61330I109J-3813D01*
G01*
X86393Y60187D02*
G03*
X85003Y60374I-1012J-2260D01*
G01*
X111203Y80358D02*
G03*
X111032Y80772I-586J0D01*
G01*
X112004Y79264D02*
G03*
X112454Y80350I-1086J1086D01*
G01*
X89572Y56778D02*
G03*
X89488Y57001I-2942J-972D01*
G01*
X81367Y49823D02*
G03*
X81596Y49660I3110J4114D01*
G01*
X82958Y49083D02*
G03*
X84926Y49725I405J2094D01*
G01*
X84502Y47783D02*
G03*
X85815Y48643I-1272J3376D01*
G01*
X95079Y50711D02*
G03*
X94776Y51902I-4916J-619D01*
G01*
X94938Y48195D02*
G03*
X95121Y49432I-6565J1605D01*
G01*
X94652Y38339D02*
G03*
X95669Y39183I-3087J4757D01*
G01*
X94299Y36492D02*
G03*
X95442Y37107I-923J3086D01*
G01*
X95442Y37107D02*
G03*
X96738Y38280I-9531J11825D01*
G01*
X107534Y33261D02*
G03*
X105314Y30575I11528J-11791D01*
G01*
X108559Y32314D02*
G03*
X106361Y29579I9023J-9504D01*
G01*
X114082Y21847D02*
G03*
X116830Y24043I-6619J11100D01*
G01*
X111229Y19779D02*
G03*
X113118Y19881I694J4669D01*
G01*
X117240Y22496D02*
G03*
X117647Y22889I-19695J20789D01*
G01*
X36866Y106992D02*
G03*
X36620Y106805I3818J-5277D01*
G01*
X37339Y107296D02*
G03*
X37106Y107156I2162J-3856D01*
G01*
X36934Y108671D02*
G03*
X36289Y108289I2648J-5207D01*
G01*
X37106Y107156D02*
G03*
X36866Y106992I2912J-4519D01*
G01*
X36289Y108288D02*
G03*
X35628Y107785I4475J-6561D01*
G01*
X36367Y106594D02*
G03*
X35841Y106102I6748J-7738D01*
G01*
X39236Y107478D02*
G03*
X39027Y107556I-874J-2011D01*
G01*
X39445Y107375D02*
G03*
X39236Y107478I-1215J-2211D01*
G01*
X39654Y107248D02*
G03*
X39445Y107375I-1628J-2455D01*
G01*
X39865Y107097D02*
G03*
X39654Y107248I-2127J-2740D01*
G01*
X39924Y108763D02*
G03*
X39358Y108987I-1432J-2792D01*
G01*
X39027Y107556D02*
G03*
X38820Y107610I-591J-1855D01*
G01*
X41010Y107951D02*
G03*
X39924Y108763I-3105J-3021D01*
G01*
X37785Y107506D02*
G03*
X37565Y107413I1055J-2795D01*
G01*
X37998Y107576D02*
G03*
X37785Y107506I661J-2385D01*
G01*
X38205Y107622D02*
G03*
X37998Y107576I349J-2049D01*
G01*
X40285Y106725D02*
G03*
X40075Y106923I-3432J-3427D01*
G01*
X42649Y104554D02*
G03*
X42343Y105916I-5672J-557D01*
G01*
X46123Y100894D02*
G03*
X45089Y101636I-2417J-2277D01*
G01*
X47950Y100455D02*
G03*
X47440Y101415I-4036J-1531D01*
G01*
X51587Y92990D02*
G03*
X50917Y92496I3932J-6030D01*
G01*
X52247Y93357D02*
G03*
X51587Y92990I2278J-4871D01*
G01*
X60001Y99182D02*
G03*
X60170Y98763I586J-7D01*
G01*
X61006Y99599D02*
G03*
X60180Y99597I-412J-416D01*
G01*
Y99597D02*
G03*
X60001Y99182I406J-422D01*
G01*
X55399Y93288D02*
G03*
X54788Y93556I-1786J-3240D01*
G01*
X53557Y92233D02*
G03*
X52390Y91823I283J-2673D01*
G01*
X57256Y91583D02*
G03*
X56590Y92371I-5248J-3759D01*
G01*
X58209Y89175D02*
G03*
X57834Y90544I-5617J-802D01*
G01*
X65689Y95156D02*
G03*
X66103Y95327I1J583D01*
G01*
X65277Y95329D02*
G03*
X65689Y95156I414J410D01*
G01*
X64595Y94339D02*
G03*
X66769Y94341I1086J1090D01*
G01*
X96145Y96659D02*
G03*
X95695Y97746I-1536J0D01*
G01*
X94717Y96248D02*
G03*
X94719Y97074I-414J414D01*
G01*
X79800Y81330D02*
G03*
X79339Y80242I1078J-1098D01*
G01*
X80597Y80233D02*
G03*
X80770Y79820I583J1D01*
G01*
X80768Y80646D02*
G03*
X80597Y80233I412J-412D01*
G01*
X100371Y93069D02*
G03*
X99577Y93285I-561J-494D01*
G01*
X100174Y91512D02*
G03*
X100070Y91387I47J-146D01*
G01*
X90308Y68625D02*
G03*
X90722Y68454I414J414D01*
G01*
X91136Y68625D02*
G03*
X91308Y69039I-414J414D01*
G01*
D02*
G03*
X91136Y69453I-586J0D01*
G01*
X90722Y68454D02*
G03*
X91136Y68625I0J586D01*
G01*
X79137Y54142D02*
G03*
X79362Y52837I7423J606D01*
G01*
X89370Y59579D02*
G03*
X89027Y59934I-9457J-8788D01*
G01*
X84687Y56525D02*
G03*
X84199Y57066I-14617J-12671D01*
G01*
X85129Y55993D02*
G03*
X84687Y56525I-12920J-10286D01*
G01*
X84170Y55060D02*
G03*
X83828Y55463I-11014J-9006D01*
G01*
X84478Y54667D02*
G03*
X84170Y55060I-9614J-7218D01*
G01*
X78682Y51052D02*
G03*
X79370Y49915I5562J2587D01*
G01*
X112454Y80350D02*
G03*
X112004Y81437I-1536J0D01*
G01*
X111032Y79944D02*
G03*
X111203Y80358I-414J414D01*
G01*
X100407Y68495D02*
G03*
X100821Y68324I414J414D01*
G01*
D02*
G03*
X101235Y68495I0J586D01*
G01*
X100409Y69321D02*
G03*
X100236Y68909I410J-414D01*
G01*
D02*
G03*
X100407Y68495I583J-1D01*
G01*
X96040Y64660D02*
G03*
X96081Y64528I306J23D01*
G01*
X94890Y64832D02*
G03*
X95243Y63690I1380J-199D01*
G01*
X89257Y57464D02*
G03*
X89109Y57702I-4365J-2542D01*
G01*
X89383Y57230D02*
G03*
X89257Y57464I-3822J-1919D01*
G01*
X89488Y57001D02*
G03*
X89383Y57230I-3349J-1400D01*
G01*
X90624Y57872D02*
G03*
X90434Y58204I-5290J-2796D01*
G01*
X90434Y58204D02*
G03*
X90214Y58541I-5945J-3645D01*
G01*
X88748Y58195D02*
G03*
X88535Y58449I-6448J-5185D01*
G01*
X88939Y57946D02*
G03*
X88748Y58195I-5674J-4161D01*
G01*
X89964Y58882D02*
G03*
X89682Y59228I-7517J-5829D01*
G01*
X89109Y57702D02*
G03*
X88939Y57946I-4981J-3285D01*
G01*
X90214Y58541D02*
G03*
X89964Y58882I-6686J-4649D01*
G01*
X86438Y53965D02*
G03*
X86180Y54457I-7734J-3748D01*
G01*
X85875Y54959D02*
G03*
X85525Y55471I-10019J-6476D01*
G01*
X86180Y54457D02*
G03*
X85875Y54959I-8803J-4992D01*
G01*
X85372Y53190D02*
G03*
X85200Y53545I-5413J-2414D01*
G01*
X85511Y52845D02*
G03*
X85372Y53190I-4677J-1679D01*
G01*
X84993Y53909D02*
G03*
X84753Y54283I-7248J-4394D01*
G01*
X85200Y53545D02*
G03*
X84993Y53909I-6267J-3311D01*
G01*
X81824Y49516D02*
G03*
X82279Y49285I1968J3317D01*
G01*
X81596Y49660D02*
G03*
X81824Y49515I2553J3791D01*
G01*
X80909Y50207D02*
G03*
X81138Y50005I4484J4876D01*
G01*
X80679Y50427D02*
G03*
X80909Y50207I5319J5315D01*
G01*
X81138Y50005D02*
G03*
X81367Y49823I3750J4476D01*
G01*
X90910Y57222D02*
G03*
X90782Y57545I-4229J-1487D01*
G01*
X91046Y55357D02*
G03*
X91073Y56591I-3248J689D01*
G01*
X91073Y56590D02*
G03*
X90910Y57222I-3673J-612D01*
G01*
X89171Y54518D02*
G03*
X89634Y56559I-1839J1491D01*
G01*
X86939Y52547D02*
G03*
X86651Y53482I-5728J-1252D01*
G01*
X81578Y47959D02*
G03*
X83043Y47563I1737J3515D01*
G01*
X90557Y54147D02*
G03*
X90722Y54448I-3886J2338D01*
G01*
X90722Y54448D02*
G03*
X90859Y54749I-3652J1836D01*
G01*
X90139Y53550D02*
G03*
X90557Y54147I-4227J3404D01*
G01*
X95442Y53412D02*
G03*
X94847Y54114I-5039J-3671D01*
G01*
X93778Y53239D02*
G03*
X93461Y53509I-1716J-1695D01*
G01*
X96272Y51182D02*
G03*
X95959Y52446I-5993J-816D01*
G01*
X92193Y39142D02*
G03*
X92215Y39118I1304J1122D01*
G01*
X92151Y39193D02*
G03*
X92193Y39142I1177J925D01*
G01*
X92130Y39221D02*
G03*
X92151Y39193I1079J803D01*
G01*
X91574Y37829D02*
G03*
X91692Y37697I4362J3786D01*
G01*
X125156Y68123D02*
G03*
X124330Y68120I-412J-416D01*
G01*
X108408Y52441D02*
G03*
X108822Y52612I1J583D01*
G01*
X107995Y52614D02*
G03*
X108408Y52441I414J410D01*
G01*
X93861Y38061D02*
G03*
X94652Y38339I-150J1689D01*
G01*
X93197Y38241D02*
G03*
X93861Y38061I602J909D01*
G01*
X91978Y37401D02*
G03*
X93179Y36555I2567J2369D01*
G01*
X125156Y67294D02*
G03*
X125328Y67708I-414J414D01*
G01*
X116820Y22105D02*
G03*
X117240Y22496I-22108J24170D01*
G01*
X75188Y57034D02*
X77175Y77129D01*
X96040Y64660D02*
X100070Y91387D01*
X94890Y64832D02*
X99066Y92639D01*
X100332Y91472D02*
X111032Y80772D01*
X100371Y93069D02*
X112004Y81437D01*
X60170Y98763D02*
X64595Y94339D01*
X61006Y99599D02*
X65277Y95329D01*
X79786Y79148D02*
X90308Y68625D01*
X80770Y79820D02*
X91136Y69453D01*
X77140Y79112D02*
X86406Y69846D01*
X77175Y77129D02*
X85432Y68872D01*
X63585Y66062D02*
X73901Y55747D01*
X73879Y57712D02*
X75839Y77811D01*
X83195Y110246D02*
X95695Y97746D01*
X82522Y109270D02*
X94719Y97074D01*
X64557Y67034D02*
X73879Y57712D01*
X95243Y63690D02*
X107311Y51622D01*
X96081Y64528D02*
X107995Y52614D01*
X102495Y44037D02*
X103707Y42825D01*
X103467Y45009D02*
X104679Y43797D01*
X49731Y98746D02*
X50716Y97760D01*
X40316Y89331D02*
X41302Y88345D01*
X63560Y92693D02*
X64545Y91707D01*
X50257Y79390D02*
X51243Y78404D01*
X82540Y58744D02*
X83666Y57618D01*
X81562Y57778D02*
X83043Y56297D01*
X89171Y54518D02*
X90139Y53550D01*
X104949Y48464D02*
X105935Y47478D01*
X97609Y50867D02*
X98595Y49881D01*
X99955Y46581D02*
X101511Y45025D01*
X100927Y47553D02*
X102483Y45997D01*
X91813Y37569D02*
X91854Y37526D01*
X88195Y41453D02*
X89180Y40467D01*
X110854Y45398D02*
X111840Y44412D01*
X97552Y32095D02*
X98538Y31109D01*
X115263Y40989D02*
X116249Y40003D01*
X124520Y31732D02*
X125505Y30747D01*
X29693Y99954D02*
X35841Y106102D01*
X28707Y100940D02*
X34951Y107160D01*
X35551Y94089D02*
X41702Y100240D01*
X34565Y95074D02*
X41416Y101926D01*
X40316Y89331D02*
X47168Y96182D01*
X41302Y88345D02*
X50716Y97760D01*
X44991Y84656D02*
X51138Y90804D01*
X44005Y85642D02*
X50237Y91874D01*
X50257Y79390D02*
X57132Y86265D01*
X66769Y94341D02*
X81696Y109268D01*
X66103Y95327D02*
X81022Y110246D01*
X51243Y78404D02*
X64545Y91707D01*
X79800Y81330D02*
X94717Y96247D01*
X80768Y80646D02*
X95695Y95573D01*
X75730Y53917D02*
X81878Y60065D01*
X101235Y68495D02*
X112004Y79264D01*
X100409Y69321D02*
X111032Y79944D01*
X88195Y41453D02*
X94938Y48195D01*
X89180Y40467D02*
X98595Y49881D01*
X95669Y39183D02*
X101511Y45025D01*
X108822Y52612D02*
X124330Y68120D01*
X96738Y38280D02*
X102495Y44037D01*
X109486Y51624D02*
X125156Y67294D01*
X97552Y32095D02*
X110854Y45398D01*
X98538Y31109D02*
X111840Y44412D01*
X107534Y33261D02*
X115263Y40989D01*
X108559Y32314D02*
X116249Y40003D01*
X116830Y24043D02*
X124520Y31732D01*
X117779Y23020D02*
X125505Y30747D01*
X48333Y97348D02*
X49731Y98746D01*
X58268Y87413D02*
X63560Y92693D01*
X79110Y55325D02*
X81562Y57778D01*
X96310Y49568D02*
X97609Y50867D01*
X75839Y77811D02*
X77140Y79112D01*
X63585Y66062D02*
X64557Y67034D01*
X85432Y68872D02*
X86406Y69846D01*
X73901Y55747D02*
X75188Y57034D01*
X76716Y52931D02*
X77930Y54146D01*
X91195Y38282D02*
X92130Y39221D01*
X102483Y45997D02*
X104949Y48464D01*
X103467Y45009D02*
X105935Y47478D01*
X28707Y100940D02*
X29693Y99954D01*
X34565Y95074D02*
X35551Y94089D01*
X44005Y85642D02*
X44991Y84656D01*
X75730Y53917D02*
X76716Y52931D01*
X93778Y53239D02*
X94135Y52882D01*
X94449Y54477D02*
X94664Y54298D01*
X93461Y53509D02*
X94449Y54477D01*
X94664Y54298D02*
X94847Y54114D01*
X99955Y46581D02*
X100927Y47553D01*
X92339Y38988D02*
X92572Y38755D01*
X92299Y39028D02*
X92339Y38988D01*
X92278Y39050D02*
X92299Y39028D01*
X92257Y39071D02*
X92278Y39050D01*
X92236Y39094D02*
X92257Y39071D01*
X92215Y39118D02*
X92236Y39094D01*
X91195Y38282D02*
X91307Y38144D01*
X91382Y38053D01*
X91459Y37963D01*
X91536Y37873D01*
X91574Y37829D01*
X91692Y37697D02*
X91732Y37654D01*
X91772Y37611D01*
X91813Y37569D01*
X91854Y37526D02*
X91896Y37484D01*
X91937Y37442D01*
X91978Y37401D01*
X103707Y42825D02*
X104679Y43797D01*
X117647Y22889D02*
X117779Y23020D01*
X116387Y21715D02*
X116820Y22105D01*
D29*
X144398Y64000D02*
X149909D01*
X144398Y69000D02*
X145153D01*
X144398Y59000D02*
Y69000D01*
Y59000D02*
X145153D01*
X149153D02*
X149909D01*
Y69000D01*
X149153D02*
X149909D01*
X144398Y114000D02*
X149909D01*
X144398Y119000D02*
X145153D01*
X144398Y109000D02*
Y119000D01*
Y109000D02*
X145153D01*
X149153D02*
X149909D01*
Y119000D01*
X149153D02*
X149909D01*
X144398Y37000D02*
X149909D01*
X149153Y32000D02*
X149909D01*
Y42000D01*
X149153D02*
X149909D01*
X144398D02*
X145153D01*
X144398Y32000D02*
Y42000D01*
Y32000D02*
X145153D01*
X144398Y50500D02*
X149909D01*
X144398Y55500D02*
X145153D01*
X144398Y45500D02*
Y55500D01*
Y45500D02*
X145153D01*
X149153D02*
X149909D01*
Y55500D01*
X149153D02*
X149909D01*
X144398Y101500D02*
X149909D01*
X144398Y106500D02*
X145153D01*
X144398Y96500D02*
Y106500D01*
Y96500D02*
X145153D01*
X149153D02*
X149909D01*
Y106500D01*
X149153D02*
X149909D01*
X144398Y89000D02*
X149909D01*
X149153Y84000D02*
X149909D01*
Y94000D01*
X149153D02*
X149909D01*
X144398D02*
X145153D01*
X144398Y84000D02*
Y94000D01*
Y84000D02*
X145153D01*
M02*
